<?xml version="1.0" encoding="UTF-8" standalone="no"?>
<!-- Created with Inkscape (http://www.inkscape.org/) -->

<svg
   xmlns:dc="http://purl.org/dc/elements/1.1/"
   xmlns:cc="http://creativecommons.org/ns#"
   xmlns:rdf="http://www.w3.org/1999/02/22-rdf-syntax-ns#"
   xmlns:svg="http://www.w3.org/2000/svg"
   xmlns="http://www.w3.org/2000/svg"
   xmlns:sodipodi="http://sodipodi.sourceforge.net/DTD/sodipodi-0.dtd"
   xmlns:inkscape="http://www.inkscape.org/namespaces/inkscape"
   width="2000"
   height="2000"
   viewBox="0 0 529.16665 529.16668"
   version="1.1"
   id="svg8"
   inkscape:version="0.92.3 (2405546, 2018-03-11)"
   sodipodi:docname="HAND 2.svg">
  <defs
     id="defs2">
    <linearGradient
       gradientTransform="matrix(0.26458333,0,0,0.26458333,2080.4308,-181.34567)"
       id="a-7"
       x1="101.44"
       x2="549.69"
       y1="852.73"
       y2="496.42"
       gradientUnits="userSpaceOnUse">
      <stop
         offset="0"
         id="stop1247" />
      <stop
         stop-color="#504416"
         offset=".30899"
         id="stop1249" />
      <stop
         offset="1"
         id="stop1251" />
    </linearGradient>
    <clipPath
       clipPathUnits="userSpaceOnUse"
       id="clipPath1632">
      <path
         d="M 0,328 H 372 V 0 H 0 Z"
         id="path1630"
         inkscape:connector-curvature="0" />
    </clipPath>
  </defs>
  <sodipodi:namedview
     id="base"
     pagecolor="#ffffff"
     bordercolor="#666666"
     borderopacity="1.0"
     inkscape:pageopacity="0.0"
     inkscape:pageshadow="2"
     inkscape:zoom="0.175"
     inkscape:cx="2417.5005"
     inkscape:cy="918.60214"
     inkscape:document-units="px"
     inkscape:current-layer="layer1"
     showgrid="false"
     inkscape:snap-global="false"
     units="px"
     inkscape:window-width="1440"
     inkscape:window-height="877"
     inkscape:window-x="-8"
     inkscape:window-y="-8"
     inkscape:window-maximized="1"
     inkscape:lockguides="true"
     showguides="true"
     inkscape:guide-bbox="true" />
  <metadata
     id="metadata5">
    <rdf:RDF>
      <cc:Work
         rdf:about="">
        <dc:format>image/svg+xml</dc:format>
        <dc:type
           rdf:resource="http://purl.org/dc/dcmitype/StillImage" />
        <dc:title></dc:title>
      </cc:Work>
    </rdf:RDF>
  </metadata>
  <g
     inkscape:label="Layer 1"
     inkscape:groupmode="layer"
     id="layer1"
     transform="translate(0,232.16668)">
    <path
       style="opacity:1;fill:#1a1a1a;fill-opacity:1;stroke:none;stroke-width:0.58666116;stroke-linecap:round;stroke-linejoin:round;stroke-miterlimit:4;stroke-dasharray:none;stroke-opacity:1"
       d="m 217.83912,-59.863797 c -6.1187,-0.48603 -11.5804,5.99634 -12.0665,12.11499 l -5.3856,70.70171 -19.1058,-66.5972 c -1.6734,-5.90538 -8.317,-11.18657 -14.2226,-9.51293 -5.9053,1.67335 -8.7687,9.64986 -7.0954,15.55538 l 19.717,68.73717 c 0.2537,1.04703 0.5049,1.94313 0.7562,2.79136 1.5805,-0.64731 3.2097,-1.19563 4.8892,-1.69339 6.5582,-1.94368 13.9022,-3.24688 22.5343,-7.19221 l 0.017,5.5e-4 c 2.0519,-0.91541 4.0525,-1.38254 5.8971,-1.42485 v 9e-5 c 1.8447,-0.0424 3.5361,0.33546 4.9775,1.11661 1.2571,0.68124 2.274,1.68596 3.0271,2.91043 0.1778,-0.30418 0.3518,-0.60991 0.5541,-0.89531 0.033,-0.46881 0.077,-0.91593 0.1009,-1.43842 l 5.43,-71.30451 c 0.486,-6.11862 -3.9033,-13.38358 -10.0221,-13.86935 z m 14.7488,83.84424 c -4.3585,-0.25466 -8.2781,2.42995 -9.6611,6.5105 0.2008,0.90936 0.2913,1.88076 0.2461,2.90656 -0.1316,3.01584 -0.9499,5.49945 -2.0935,7.69198 l -2.4164,15.06325 c -0.8467,5.30273 2.7153,10.208797 8.018,11.055387 5.3029,0.846715 10.2119,-2.706047 11.0575,-8.008657 l 3.8553,-24.05445 c 0.8467,-5.30275 -2.7151,-10.21109 -8.0179,-11.05772 -0.3318,-0.0533 -0.6605,-0.0874 -0.9879,-0.10692 z m -18.7908,1.89346 c -1.5025,0.0356 -3.1946,0.41705 -5.0105,1.2272 -8.8912,4.06042 -16.4511,5.41041 -22.8226,7.29878 -6.377,1.88994 -11.5285,4.23955 -16.1927,10.40281 -2.161,2.85534 -4.8016,8.53182 -4.9117,13.34973 l -9e-4,0.042 -9e-4,0.0443 c -0.8963,9.234451 -0.518,21.581231 2.3433,32.827275 2.8613,11.246092 8.192,21.314992 16.9826,26.343802 8.1854,4.68255 19.2673,5.623 29.9729,6.18458 10.7057,0.56154 17.0151,-0.99993 23.633,-4.38822 9.5228,-4.87557 18.6864,-15.18888 20.7487,-28.15825 1.5077,-9.481988 1.2873,-19.18765 0.1783,-26.786907 -2.5836,2.518552 -6.2695,3.843964 -10.1121,3.256138 -4.0407,-0.618067 -7.2914,-3.199568 -8.9382,-6.623978 -1.607,5.753307 -7.3045,9.516138 -13.3443,8.55175 -6.4986,-1.037538 -10.9229,-7.14675 -9.8852,-13.64529 l 1.6587,-10.33914 c -0.2092,0.2447 -0.4181,0.48639 -0.6019,0.66728 -2.5966,2.58859 -5.6727,4.61316 -8.8726,6.04811 -3.5085,1.57322 -7.041,2.67564 -9.8224,3.71424 -2.7814,1.03863 -4.714,2.1462 -5.1473,2.94203 l -6e-4,0.0172 -0.017,0.008 c -0.924,1.60449 -1.0679,2.98507 -0.7917,4.42659 0.2765,1.44153 1.0299,2.93866 1.9875,4.486384 1.9153,3.095505 4.6846,6.313141 5.2168,10.227151 l -2.2344,0.309149 c -0.406,-2.985467 -2.8667,-6.060748 -4.9021,-9.350508 -1.0176,-1.644873 -1.9239,-3.361616 -2.2852,-5.248086 -0.3598,-1.88107 -0.1103,-3.93065 1.0529,-5.95975 1.0799,-1.96518 3.4555,-2.89691 6.3219,-3.96728 2.8742,-1.07318 6.3371,-2.1629 9.6876,-3.66533 3.3505,-1.5024 6.5728,-3.41806 8.9787,-6.07937 2.4057,-2.66127 4.037,-6.04824 4.2465,-10.74334 0.1452,-3.24153 -1.127,-5.42213 -3.2446,-6.56964 -1.0589,-0.57376 -2.3716,-0.88475 -3.874,-0.84936 z m 39.4032,5.57952 c -4.9095,-0.24916 -9.2474,3.21979 -10.0069,8.19241 l -4e-4,0.0103 -2.3385,14.63667 0.017,-0.008 c -0.812,5.30812 2.7746,10.19434 8.0828,11.00625 5.3081,0.81204 10.1933,-2.77483 11.004,-8.08287 l 3e-4,-0.008 2.3387,-14.63896 -0.017,-5.5e-4 c 0.8121,-5.30817 -2.7722,-10.19197 -8.0805,-11.0039 0,0 -0.017,-5.4e-4 -0.017,-5.4e-4 -0.3303,-0.0506 -0.6589,-0.0855 -0.9856,-0.10216 z"
       id="path4799"
       inkscape:connector-curvature="0"
       sodipodi:nodetypes="ccccccccccccccccccccccccccccccccccccccccscsccccccccccccsccccccccccccccccccccccccccc" />
  </g>
</svg>
